<?xml version="1.0" encoding="UTF-8"?>
<svg xmlns="http://www.w3.org/2000/svg" viewBox="0 0 1200 630" width="1200" height="630">
  <defs>
    <pattern id="dots" x="0" y="0" width="32" height="32" patternUnits="userSpaceOnUse">
      <circle cx="16" cy="16" r="1.5" fill="#E5E0D5" />
    </pattern>
  </defs>

  <!-- background -->
  <rect width="1200" height="630" fill="#FFFDF7" />
  <rect width="1200" height="630" fill="url(#dots)" opacity="0.6" />

  <!-- content card -->
  <rect x="60" y="60" width="1080" height="510" rx="32" fill="#FFFDF7" stroke="#E5E0D5" stroke-width="2" />

  <!-- handwritten accent -->
  <text x="120" y="170" font-family="Patrick Hand, cursive" font-size="36" fill="#9C9385">
    Trilha Empreendedora
  </text>

  <!-- main title -->
  <text x="120" y="270" font-family="Nunito, system-ui, sans-serif" font-weight="700" font-size="80" fill="#2B2A28">
    Encontre o próximo
  </text>
  <text x="120" y="360" font-family="Nunito, system-ui, sans-serif" font-weight="700" font-size="80" fill="#2B2A28">
    passo do seu negócio.
  </text>

  <!-- wavy underline -->
  <path d="M 120 380 Q 180 372 240 380 T 360 380 T 480 380" stroke="#4F7CAC" stroke-width="6" fill="none" stroke-linecap="round" />

  <!-- description -->
  <text x="120" y="450" font-family="Nunito, system-ui, sans-serif" font-weight="400" font-size="32" fill="#5A574F">
    Diagnóstico de 5 minutos. Trilha de 30 dias.
  </text>
  <text x="120" y="492" font-family="Nunito, system-ui, sans-serif" font-weight="400" font-size="32" fill="#5A574F">
    Gratuito, sem cadastro pra começar.
  </text>

  <!-- sketch: notebook -->
  <g transform="translate(880, 200)">
    <rect x="0" y="0" width="200" height="240" rx="8" fill="#FFFDF7" stroke="#2B2A28" stroke-width="3" />
    <line x1="20" y1="50" x2="180" y2="50" stroke="#9C9385" stroke-width="2" />
    <line x1="20" y1="80" x2="180" y2="80" stroke="#9C9385" stroke-width="2" />
    <line x1="20" y1="110" x2="160" y2="110" stroke="#9C9385" stroke-width="2" />
    <line x1="20" y1="140" x2="180" y2="140" stroke="#9C9385" stroke-width="2" />
    <line x1="20" y1="170" x2="140" y2="170" stroke="#9C9385" stroke-width="2" />
    <circle cx="40" cy="210" r="10" fill="#F4D58D" stroke="#2B2A28" stroke-width="2" />
    <path d="M 70 210 L 100 210" stroke="#2B2A28" stroke-width="3" stroke-linecap="round" />
    <path d="M 50 25 Q 60 15 80 20" stroke="#4F7CAC" stroke-width="3" fill="none" stroke-linecap="round" />
  </g>

  <!-- footer -->
  <text x="120" y="556" font-family="Nunito, system-ui, sans-serif" font-weight="600" font-size="24" fill="#4F7CAC">
    trilha-empreendedora.vercel.app
  </text>
</svg>
